<svg width="1026" height="323" viewBox="0 0 1026 323" fill="none" xmlns="http://www.w3.org/2000/svg">
<mask id="mask0_622_106" style="mask-type:alpha" maskUnits="userSpaceOnUse" x="22" y="0" width="344" height="323">
<path d="M79.3301 249.238H22V147.251H79.3301V249.238ZM26.2248 245.014H75.1061V151.475H26.2248V245.014Z" fill="url(#paint0_linear_622_106)"/>
<path d="M52.7806 129.747H48.5566V149.058H52.7806V129.747Z" fill="url(#paint1_linear_622_106)"/>
<path d="M52.7806 246.823H48.5566V266.135H52.7806V246.823Z" fill="url(#paint2_linear_622_106)"/>
<path d="M150.54 304.754H93.21V78.4512H150.54V304.754ZM98.0376 300.53H146.92V82.6756H98.0376V300.53Z" fill="url(#paint3_linear_622_106)"/>
<path d="M124.589 61.5557H120.365V80.8668H124.589V61.5557Z" fill="url(#paint4_linear_622_106)"/>
<path d="M124.589 302.946H120.365V322.257H124.589V302.946Z" fill="url(#paint5_linear_622_106)"/>
<path d="M222.354 241.992H165.024V16.8955H222.354V241.992ZM169.852 237.768H218.733V21.1199H169.852V237.768Z" fill="url(#paint6_linear_622_106)"/>
<path d="M195.805 0H191.58V19.3113H195.805V0Z" fill="url(#paint7_linear_622_106)"/>
<path d="M195.805 240.183H191.58V259.494H195.805V240.183Z" fill="url(#paint8_linear_622_106)"/>
<path d="M294.17 302.344H236.84V79.0576H294.17V302.344ZM241.065 298.119H289.946V82.6785H241.065V298.119Z" fill="url(#paint9_linear_622_106)"/>
<path d="M267.621 61.5557H263.396V80.8668H267.621V61.5557Z" fill="url(#paint10_linear_622_106)"/>
<path d="M267.621 299.928H263.396V319.239H267.621V299.928Z" fill="url(#paint11_linear_622_106)"/>
<path d="M365.98 275.787H308.65V119.486H365.98V275.787ZM312.875 271.562H361.756V123.711H312.875V271.562Z" fill="url(#paint12_linear_622_106)"/>
<path d="M339.429 102.591H335.205V121.902H339.429V102.591Z" fill="url(#paint13_linear_622_106)"/>
<path d="M339.429 273.374H335.205V292.685H339.429V273.374Z" fill="url(#paint14_linear_622_106)"/>
</mask>
<g mask="url(#mask0_622_106)">
<rect x="5" y="-17" width="377" height="355" fill="url(#paint15_linear_622_106)"/>
</g>
<path d="M13.5391 230.97L89.5941 187.66L160.216 206.307L233.856 166.004L305.685 191.269L384.154 138.334V265.257H13.5391V230.97Z" fill="url(#paint16_linear_622_106)"/>
<path d="M385.632 134.384L305.847 188.179L234.522 162.793L160.177 203.29L90.0618 184.552L0 235.325V241.974L90.666 190.597L161.385 208.73L235.127 168.837L306.451 194.223L388.655 138.615L385.632 134.384Z" fill="white"/>
<path d="M377.019 131.612L390.489 131H395.999L393.55 135.898L387.427 147.532L384.978 134.674L388.039 138.96L377.019 131.612Z" fill="white"/>
<path d="M452.4 88.76V93.32H428.4V173H423V93.32H399V88.76H452.4ZM491.174 106.52C498.854 106.52 505.134 108.92 510.014 113.72C514.894 118.44 517.334 125.48 517.334 134.84V173H512.054V135.2C512.054 127.44 510.094 121.52 506.174 117.44C502.254 113.28 496.934 111.2 490.214 111.2C483.174 111.2 477.534 113.44 473.294 117.92C469.134 122.4 467.054 129.04 467.054 137.84V173H461.654V84.2H467.054V121.64C468.894 116.76 471.974 113.04 476.294 110.48C480.614 107.84 485.574 106.52 491.174 106.52ZM591.5 136.04C591.5 138.92 591.42 141.08 591.26 142.52H534.98C535.14 148.36 536.42 153.28 538.82 157.28C541.22 161.28 544.38 164.28 548.3 166.28C552.22 168.28 556.5 169.28 561.14 169.28C567.54 169.28 572.9 167.72 577.22 164.6C581.54 161.4 584.26 157.08 585.38 151.64H591.02C589.74 158.28 586.46 163.68 581.18 167.84C575.9 171.92 569.22 173.96 561.14 173.96C555.06 173.96 549.62 172.6 544.82 169.88C540.02 167.16 536.26 163.28 533.54 158.24C530.82 153.12 529.46 147.16 529.46 140.36C529.46 133.56 530.78 127.64 533.42 122.6C536.14 117.56 539.9 113.72 544.7 111.08C549.5 108.36 554.98 107 561.14 107C567.38 107 572.78 108.36 577.34 111.08C581.98 113.72 585.5 117.28 587.9 121.76C590.3 126.16 591.5 130.92 591.5 136.04ZM586.1 138.08C586.34 132.32 585.3 127.44 582.98 123.44C580.74 119.44 577.66 116.48 573.74 114.56C569.82 112.56 565.58 111.56 561.02 111.56C556.46 111.56 552.22 112.56 548.3 114.56C544.46 116.48 541.3 119.44 538.82 123.44C536.42 127.44 535.14 132.32 534.98 138.08H586.1ZM655.22 112.52C655.22 119.96 652.9 125.76 648.26 129.92C643.62 134 636.74 136.04 627.62 136.04H609.62V173H604.22V88.76H627.62C636.9 88.76 643.82 90.92 648.38 95.24C652.94 99.48 655.22 105.24 655.22 112.52ZM627.62 131.24C642.42 131.24 649.82 125 649.82 112.52C649.82 106.36 648.06 101.68 644.54 98.48C641.02 95.2 635.38 93.56 627.62 93.56H609.62V131.24H627.62ZM668.888 93.32C667.608 93.32 666.528 92.92 665.648 92.12C664.768 91.24 664.328 90.08 664.328 88.64C664.328 87.28 664.768 86.16 665.648 85.28C666.528 84.4 667.608 83.96 668.888 83.96C670.168 83.96 671.248 84.4 672.128 85.28C673.008 86.16 673.448 87.28 673.448 88.64C673.448 90.08 673.008 91.24 672.128 92.12C671.248 92.92 670.168 93.32 668.888 93.32ZM671.528 107.84V173H666.128V107.84H671.528ZM693.123 125C694.963 119.72 698.283 115.4 703.083 112.04C707.963 108.68 713.843 107 720.723 107C726.803 107 732.203 108.36 736.923 111.08C741.723 113.8 745.443 117.68 748.083 122.72C750.803 127.76 752.163 133.64 752.163 140.36C752.163 147.08 750.803 153 748.083 158.12C745.443 163.16 741.723 167.08 736.923 169.88C732.203 172.6 726.803 173.96 720.723 173.96C713.923 173.96 708.083 172.28 703.203 168.92C698.403 165.48 695.043 161.16 693.123 155.96V203.72H687.723V107.84H693.123V125ZM746.643 140.36C746.643 134.44 745.523 129.32 743.283 125C741.043 120.68 737.883 117.4 733.803 115.16C729.803 112.84 725.163 111.68 719.883 111.68C714.843 111.68 710.283 112.88 706.203 115.28C702.123 117.6 698.923 120.96 696.603 125.36C694.283 129.68 693.123 134.68 693.123 140.36C693.123 146.12 694.283 151.2 696.603 155.6C698.923 159.92 702.123 163.28 706.203 165.68C710.283 168 714.843 169.16 719.883 169.16C725.163 169.16 729.803 168 733.803 165.68C737.883 163.36 741.043 160.04 743.283 155.72C745.523 151.4 746.643 146.28 746.643 140.36ZM402.48 239C402.48 230.68 404.2 223.28 407.64 216.8C411.16 210.24 415.96 205.12 422.04 201.44C428.2 197.76 435.08 195.92 442.68 195.92C452.28 195.92 460.36 198.16 466.92 202.64C473.48 207.12 478.28 213.4 481.32 221.48H475.08C472.68 215.08 468.68 210.04 463.08 206.36C457.56 202.6 450.76 200.72 442.68 200.72C436.2 200.72 430.32 202.28 425.04 205.4C419.76 208.44 415.6 212.88 412.56 218.72C409.52 224.48 408 231.24 408 239C408 246.68 409.52 253.4 412.56 259.16C415.6 264.84 419.76 269.24 425.04 272.36C430.32 275.48 436.2 277.04 442.68 277.04C450.76 277.04 457.56 275.2 463.08 271.52C468.68 267.76 472.68 262.68 475.08 256.28H481.32C478.28 264.36 473.48 270.64 466.92 275.12C460.36 279.6 452.28 281.84 442.68 281.84C435.08 281.84 428.2 280.04 422.04 276.44C415.96 272.76 411.16 267.68 407.64 261.2C404.2 254.64 402.48 247.24 402.48 239ZM523.264 281.96C517.184 281.96 511.704 280.6 506.824 277.88C501.944 275.16 498.104 271.28 495.304 266.24C492.584 261.12 491.224 255.16 491.224 248.36C491.224 241.64 492.624 235.76 495.424 230.72C498.224 225.6 502.064 221.72 506.944 219.08C511.904 216.36 517.424 215 523.504 215C529.584 215 535.064 216.36 539.944 219.08C544.824 221.72 548.624 225.56 551.344 230.6C554.144 235.64 555.544 241.56 555.544 248.36C555.544 255.16 554.144 261.12 551.344 266.24C548.544 271.28 544.664 275.16 539.704 277.88C534.824 280.6 529.344 281.96 523.264 281.96ZM523.264 277.16C527.984 277.16 532.384 276.12 536.464 274.04C540.624 271.88 543.944 268.64 546.424 264.32C548.904 260 550.144 254.68 550.144 248.36C550.144 242.12 548.904 236.84 546.424 232.52C543.944 228.2 540.664 225 536.584 222.92C532.504 220.76 528.104 219.68 523.384 219.68C518.664 219.68 514.264 220.76 510.184 222.92C506.184 225 502.944 228.2 500.464 232.52C497.984 236.84 496.744 242.12 496.744 248.36C496.744 254.68 497.944 260 500.344 264.32C502.824 268.64 506.064 271.88 510.064 274.04C514.144 276.12 518.544 277.16 523.264 277.16ZM573.728 192.2V281H568.328V192.2H573.728ZM595.323 192.2V281H589.923V192.2H595.323ZM670.198 244.04C670.198 246.92 670.118 249.08 669.958 250.52H613.678C613.838 256.36 615.118 261.28 617.518 265.28C619.918 269.28 623.078 272.28 626.998 274.28C630.918 276.28 635.198 277.28 639.838 277.28C646.238 277.28 651.598 275.72 655.918 272.6C660.238 269.4 662.958 265.08 664.078 259.64H669.718C668.438 266.28 665.158 271.68 659.878 275.84C654.598 279.92 647.918 281.96 639.838 281.96C633.758 281.96 628.318 280.6 623.518 277.88C618.718 275.16 614.958 271.28 612.238 266.24C609.518 261.12 608.158 255.16 608.158 248.36C608.158 241.56 609.478 235.64 612.118 230.6C614.838 225.56 618.598 221.72 623.398 219.08C628.198 216.36 633.678 215 639.838 215C646.078 215 651.478 216.36 656.038 219.08C660.678 221.72 664.198 225.28 666.598 229.76C668.998 234.16 670.198 238.92 670.198 244.04ZM664.798 246.08C665.038 240.32 663.998 235.44 661.678 231.44C659.438 227.44 656.358 224.48 652.438 222.56C648.518 220.56 644.278 219.56 639.718 219.56C635.158 219.56 630.918 220.56 626.998 222.56C623.158 224.48 619.998 227.44 617.518 231.44C615.118 235.44 613.838 240.32 613.678 246.08H664.798ZM679.558 248.36C679.558 241.56 680.878 235.64 683.518 230.6C686.238 225.56 689.958 221.72 694.678 219.08C699.478 216.36 704.958 215 711.118 215C719.278 215 725.958 217.04 731.158 221.12C736.438 225.2 739.718 230.68 740.998 237.56H735.358C734.318 231.96 731.598 227.56 727.198 224.36C722.878 221.16 717.518 219.56 711.118 219.56C706.318 219.56 701.958 220.64 698.038 222.8C694.118 224.88 690.958 228.12 688.558 232.52C686.238 236.84 685.078 242.12 685.078 248.36C685.078 254.68 686.238 260 688.558 264.32C690.958 268.64 694.118 271.88 698.038 274.04C701.958 276.2 706.318 277.28 711.118 277.28C717.518 277.28 722.878 275.68 727.198 272.48C731.598 269.28 734.318 264.88 735.358 259.28H740.998C739.718 266.08 736.438 271.56 731.158 275.72C725.878 279.88 719.198 281.96 711.118 281.96C704.958 281.96 699.478 280.6 694.678 277.88C689.958 275.16 686.238 271.28 683.518 266.24C680.878 261.12 679.558 255.16 679.558 248.36ZM761.889 220.52V263.6C761.889 268.4 762.769 271.72 764.529 273.56C766.289 275.32 769.409 276.2 773.889 276.2H781.209V281H773.049C767.369 281 763.169 279.68 760.449 277.04C757.809 274.32 756.489 269.84 756.489 263.6V220.52H746.649V215.84H756.489V199.28H761.889V215.84H781.209V220.52H761.889ZM794.611 201.32C793.331 201.32 792.251 200.92 791.371 200.12C790.491 199.24 790.051 198.08 790.051 196.64C790.051 195.28 790.491 194.16 791.371 193.28C792.251 192.4 793.331 191.96 794.611 191.96C795.891 191.96 796.971 192.4 797.851 193.28C798.731 194.16 799.171 195.28 799.171 196.64C799.171 198.08 798.731 199.24 797.851 200.12C796.971 200.92 795.891 201.32 794.611 201.32ZM797.251 215.84V281H791.851V215.84H797.251ZM835.526 275.12L859.526 215.84H865.286L838.286 281H832.646L805.646 215.84H811.526L835.526 275.12ZM932.276 244.04C932.276 246.92 932.196 249.08 932.036 250.52H875.756C875.916 256.36 877.196 261.28 879.596 265.28C881.996 269.28 885.156 272.28 889.076 274.28C892.996 276.28 897.276 277.28 901.916 277.28C908.316 277.28 913.676 275.72 917.996 272.6C922.316 269.4 925.036 265.08 926.156 259.64H931.796C930.516 266.28 927.236 271.68 921.956 275.84C916.676 279.92 909.996 281.96 901.916 281.96C895.836 281.96 890.396 280.6 885.596 277.88C880.796 275.16 877.036 271.28 874.316 266.24C871.596 261.12 870.236 255.16 870.236 248.36C870.236 241.56 871.556 235.64 874.196 230.6C876.916 225.56 880.676 221.72 885.476 219.08C890.276 216.36 895.756 215 901.916 215C908.156 215 913.556 216.36 918.116 219.08C922.756 221.72 926.276 225.28 928.676 229.76C931.076 234.16 932.276 238.92 932.276 244.04ZM926.876 246.08C927.116 240.32 926.076 235.44 923.756 231.44C921.516 227.44 918.436 224.48 914.516 222.56C910.596 220.56 906.356 219.56 901.796 219.56C897.236 219.56 892.996 220.56 889.076 222.56C885.236 224.48 882.076 227.44 879.596 231.44C877.196 235.44 875.916 240.32 875.756 246.08H926.876Z" fill="white"/>
<defs>
<linearGradient id="paint0_linear_622_106" x1="26.9298" y1="82.5892" x2="72.0806" y2="302.581" gradientUnits="userSpaceOnUse">
<stop stop-color="#A600F7"/>
<stop offset="0.4246" stop-color="#A600F7"/>
<stop offset="1" stop-color="#CFCCCE"/>
</linearGradient>
<linearGradient id="paint1_linear_622_106" x1="36.602" y1="71.234" x2="88.4051" y2="323.617" gradientUnits="userSpaceOnUse">
<stop stop-color="#A600F7"/>
<stop offset="0.4246" stop-color="#A600F7"/>
<stop offset="1" stop-color="#CFCCCE"/>
</linearGradient>
<linearGradient id="paint2_linear_622_106" x1="10.287" y1="59.9215" x2="62.09" y2="312.304" gradientUnits="userSpaceOnUse">
<stop stop-color="#A600F7"/>
<stop offset="0.4246" stop-color="#A600F7"/>
<stop offset="1" stop-color="#CFCCCE"/>
</linearGradient>
<linearGradient id="paint3_linear_622_106" x1="92.3168" y1="45.8683" x2="144.115" y2="298.252" gradientUnits="userSpaceOnUse">
<stop stop-color="#A600F7"/>
<stop offset="0.4246" stop-color="#A600F7"/>
<stop offset="1" stop-color="#CFCCCE"/>
</linearGradient>
<linearGradient id="paint4_linear_622_106" x1="116.082" y1="40.9924" x2="167.884" y2="293.373" gradientUnits="userSpaceOnUse">
<stop stop-color="#A600F7"/>
<stop offset="0.4246" stop-color="#A600F7"/>
<stop offset="1" stop-color="#CFCCCE"/>
</linearGradient>
<linearGradient id="paint5_linear_622_106" x1="68.5511" y1="50.7512" x2="120.353" y2="303.131" gradientUnits="userSpaceOnUse">
<stop stop-color="#A600F7"/>
<stop offset="0.4246" stop-color="#A600F7"/>
<stop offset="1" stop-color="#CFCCCE"/>
</linearGradient>
<linearGradient id="paint6_linear_622_106" x1="173.322" y1="29.242" x2="225.121" y2="281.625" gradientUnits="userSpaceOnUse">
<stop stop-color="#A600F7"/>
<stop offset="0.4246" stop-color="#A600F7"/>
<stop offset="1" stop-color="#CFCCCE"/>
</linearGradient>
<linearGradient id="paint7_linear_622_106" x1="196.985" y1="24.3883" x2="248.779" y2="276.774" gradientUnits="userSpaceOnUse">
<stop stop-color="#A600F7"/>
<stop offset="0.4246" stop-color="#A600F7"/>
<stop offset="1" stop-color="#CFCCCE"/>
</linearGradient>
<linearGradient id="paint8_linear_622_106" x1="149.662" y1="34.0977" x2="201.457" y2="286.485" gradientUnits="userSpaceOnUse">
<stop stop-color="#A600F7"/>
<stop offset="0.4246" stop-color="#A600F7"/>
<stop offset="1" stop-color="#CFCCCE"/>
</linearGradient>
<linearGradient id="paint9_linear_622_106" x1="230.073" y1="17.5991" x2="281.872" y2="269.982" gradientUnits="userSpaceOnUse">
<stop stop-color="#A600F7"/>
<stop offset="0.4246" stop-color="#A600F7"/>
<stop offset="1" stop-color="#CFCCCE"/>
</linearGradient>
<linearGradient id="paint10_linear_622_106" x1="253.57" y1="12.7758" x2="305.363" y2="265.16" gradientUnits="userSpaceOnUse">
<stop stop-color="#A600F7"/>
<stop offset="0.4246" stop-color="#A600F7"/>
<stop offset="1" stop-color="#CFCCCE"/>
</linearGradient>
<linearGradient id="paint11_linear_622_106" x1="206.573" y1="22.4209" x2="258.366" y2="274.806" gradientUnits="userSpaceOnUse">
<stop stop-color="#A600F7"/>
<stop offset="0.4246" stop-color="#A600F7"/>
<stop offset="1" stop-color="#CFCCCE"/>
</linearGradient>
<linearGradient id="paint12_linear_622_106" x1="297.402" y1="3.77618" x2="349.2" y2="256.159" gradientUnits="userSpaceOnUse">
<stop stop-color="#A600F7"/>
<stop offset="0.4246" stop-color="#A600F7"/>
<stop offset="1" stop-color="#CFCCCE"/>
</linearGradient>
<linearGradient id="paint13_linear_622_106" x1="314.279" y1="0.313262" x2="366.082" y2="252.697" gradientUnits="userSpaceOnUse">
<stop stop-color="#A600F7"/>
<stop offset="0.4246" stop-color="#A600F7"/>
<stop offset="1" stop-color="#CFCCCE"/>
</linearGradient>
<linearGradient id="paint14_linear_622_106" x1="280.53" y1="7.23973" x2="332.333" y2="259.623" gradientUnits="userSpaceOnUse">
<stop stop-color="#A600F7"/>
<stop offset="0.4246" stop-color="#A600F7"/>
<stop offset="1" stop-color="#CFCCCE"/>
</linearGradient>
<linearGradient id="paint15_linear_622_106" x1="5" y1="160.5" x2="423.308" y2="160.376" gradientUnits="userSpaceOnUse">
<stop stop-color="#CE05FF"/>
<stop offset="0.326923" stop-color="#811BC0"/>
<stop offset="0.66" stop-color="#5D3DBB"/>
<stop offset="1" stop-color="#049ACB"/>
</linearGradient>
<linearGradient id="paint16_linear_622_106" x1="198.813" y1="180.314" x2="198.813" y2="266.985" gradientUnits="userSpaceOnUse">
<stop offset="0.3184" stop-color="#121212"/>
<stop offset="1" stop-opacity="0"/>
</linearGradient>
</defs>
</svg>
