<svg width="204" height="67" viewBox="0 0 204 67" fill="none" xmlns="http://www.w3.org/2000/svg">
<g clip-path="url(#clip0_1_9422)">
<path d="M104.992 56.2137H204.001V55.7988H104.992V56.2137Z" fill="url(#paint0_linear_1_9422)"/>
<path d="M17.0364 51.6991H5.21094V30.5439H17.0364V51.6991ZM6.08238 50.823H16.1651V31.4201H6.08238V50.823Z" fill="url(#paint1_linear_1_9422)"/>
<path d="M11.5588 26.9131H10.6875V30.9188H11.5588V26.9131Z" fill="url(#paint2_linear_1_9422)"/>
<path d="M11.5588 51.1982H10.6875V55.2041H11.5588V51.1982Z" fill="url(#paint3_linear_1_9422)"/>
<path d="M31.7238 63.2155H19.8984V16.2734H31.7238V63.2155ZM20.8942 62.3393H30.9771V17.1497H20.8942V62.3393Z" fill="url(#paint4_linear_1_9422)"/>
<path d="M26.3713 12.7686H25.5V16.7743H26.3713V12.7686Z" fill="url(#paint5_linear_1_9422)"/>
<path d="M26.3713 62.8398H25.5V66.8455H26.3713V62.8398Z" fill="url(#paint6_linear_1_9422)"/>
<path d="M46.5363 50.1967H34.7109V3.50488H46.5363V50.1967ZM35.7068 49.3205H45.7894V4.38115H35.7068V49.3205Z" fill="url(#paint7_linear_1_9422)"/>
<path d="M41.059 0H40.1875V4.00575H41.059V0Z" fill="url(#paint8_linear_1_9422)"/>
<path d="M41.059 49.8213H40.1875V53.827H41.059V49.8213Z" fill="url(#paint9_linear_1_9422)"/>
<path d="M61.3488 62.7158H49.5234V16.3994H61.3488V62.7158ZM50.3949 61.8394H60.4776V17.1505H50.3949V61.8394Z" fill="url(#paint10_linear_1_9422)"/>
<path d="M55.8715 12.7686H55V16.7743H55.8715V12.7686Z" fill="url(#paint11_linear_1_9422)"/>
<path d="M55.8715 62.2139H55V66.2196H55.8715V62.2139Z" fill="url(#paint12_linear_1_9422)"/>
<path d="M76.1613 57.2066H64.3359V24.785H76.1613V57.2066ZM65.2074 56.3302H75.2901V25.6614H65.2074V56.3302Z" fill="url(#paint13_linear_1_9422)"/>
<path d="M70.6838 21.2803H69.8125V25.286H70.6838V21.2803Z" fill="url(#paint14_linear_1_9422)"/>
<path d="M70.6838 56.7061H69.8125V60.7117H70.6838V56.7061Z" fill="url(#paint15_linear_1_9422)"/>
<path d="M2.79297 48.0358L18.4808 39.052L33.0479 42.92L48.2375 34.5601L63.0536 39.8006L79.2393 28.8203V55.148H2.79297V48.0358Z" fill="url(#paint16_linear_1_9422)"/>
<path d="M79.4309 28.0008L62.997 39.1755L48.3059 33.902L32.9925 42.3143L18.5505 38.4221L0 48.9689V50.3502L18.675 39.6777L33.2415 43.4444L48.4305 35.1576L63.1214 40.4311L80.0534 28.8797L79.4309 28.0008Z" fill="white"/>
<path d="M77.7266 27.4245L80.5341 27.2988H81.6828L81.1723 28.3045L79.8961 30.6922L79.3856 28.053L80.0236 28.9328L77.7266 27.4245Z" fill="white"/>
<path d="M93.7871 13.5077V14.9514H88.9851V30.907H87.2525V14.9514H82.4258V13.5077H93.7871ZM102.216 17.0672C103.239 17.0672 104.155 17.283 104.964 17.7144C105.789 18.1459 106.432 18.8097 106.894 19.7058C107.373 20.5853 107.612 21.6639 107.612 22.9417V30.907H105.904V23.1408C105.904 21.6639 105.533 20.5355 104.79 19.7555C104.064 18.9756 103.066 18.5856 101.795 18.5856C100.492 18.5856 99.452 19.0005 98.6765 19.8302C97.9009 20.6599 97.5131 21.8796 97.5131 23.4893V30.907H95.7805V12.4872H97.5131V19.6311C97.9422 18.818 98.5692 18.1874 99.3943 17.7393C100.236 17.2913 101.176 17.0672 102.216 17.0672ZM122.929 23.4146C122.929 24.012 122.912 24.4684 122.879 24.7836H111.667C111.716 25.8125 111.964 26.692 112.409 27.4222C112.855 28.1523 113.441 28.7082 114.167 29.0899C114.893 29.455 115.685 29.6375 116.543 29.6375C117.665 29.6375 118.606 29.3637 119.365 28.8161C120.14 28.2685 120.652 27.53 120.899 26.6007H122.731C122.401 27.9283 121.691 29.0152 120.602 29.8615C119.53 30.6913 118.177 31.1061 116.543 31.1061C115.272 31.1061 114.134 30.824 113.127 30.2598C112.12 29.679 111.328 28.8659 110.751 27.8204C110.19 26.7584 109.909 25.5221 109.909 24.1116C109.909 22.701 110.19 21.4648 110.751 20.4027C111.312 19.3407 112.096 18.5275 113.102 17.9633C114.109 17.3991 115.256 17.117 116.543 17.117C117.83 17.117 118.952 17.3991 119.909 17.9633C120.883 18.5275 121.625 19.2909 122.137 20.2534C122.665 21.1993 122.929 22.253 122.929 23.4146ZM121.172 23.3648C121.188 22.3526 120.982 21.4897 120.553 20.7761C120.14 20.0625 119.571 19.5232 118.845 19.1581C118.119 18.7931 117.327 18.6105 116.469 18.6105C115.181 18.6105 114.084 19.0254 113.177 19.8551C112.269 20.6848 111.766 21.8547 111.667 23.3648H121.172ZM136.421 18.511C136.421 20.0045 135.934 21.2075 134.96 22.1202C133.987 23.0329 132.526 23.4893 130.579 23.4893H127.089V30.907H125.357V13.5077H130.579C132.51 13.5077 133.962 13.9641 134.936 14.8768C135.926 15.7895 136.421 17.0009 136.421 18.511ZM130.579 21.9958C133.286 21.9958 134.639 20.8342 134.639 18.511C134.639 17.3493 134.317 16.4698 133.673 15.8724C133.03 15.275 131.998 14.9763 130.579 14.9763H127.089V21.9958H130.579ZM139.452 14.7523C139.105 14.7523 138.808 14.6279 138.561 14.3789C138.313 14.13 138.189 13.823 138.189 13.4579C138.189 13.0929 138.313 12.7942 138.561 12.5619C138.808 12.3129 139.105 12.1885 139.452 12.1885C139.798 12.1885 140.095 12.3129 140.343 12.5619C140.59 12.7942 140.714 13.0929 140.714 13.4579C140.714 13.823 140.59 14.13 140.343 14.3789C140.095 14.6279 139.798 14.7523 139.452 14.7523ZM140.318 17.3162V30.907H138.585V17.3162H140.318ZM145.207 20.3032C145.636 19.3905 146.313 18.6354 147.237 18.038C148.177 17.424 149.291 17.117 150.578 17.117C151.799 17.117 152.897 17.4074 153.87 17.9882C154.86 18.5524 155.628 19.3656 156.172 20.4276C156.733 21.4731 157.014 22.6927 157.014 24.0867C157.014 25.4806 156.733 26.7086 156.172 27.7706C155.628 28.8327 154.86 29.6541 153.87 30.2349C152.897 30.8157 151.799 31.1061 150.578 31.1061C149.308 31.1061 148.202 30.8074 147.261 30.21C146.321 29.596 145.636 28.8327 145.207 27.92V37.329H143.499V17.3162H145.207V20.3032ZM155.256 24.0867C155.256 22.9583 155.034 21.9875 154.588 21.1744C154.159 20.3446 153.565 19.714 152.806 19.2826C152.047 18.8511 151.189 18.6354 150.232 18.6354C149.308 18.6354 148.458 18.8594 147.682 19.3075C146.923 19.7555 146.321 20.3944 145.875 21.2241C145.43 22.0539 145.207 23.0163 145.207 24.1116C145.207 25.2068 145.43 26.1693 145.875 26.999C146.321 27.8287 146.923 28.4676 147.682 28.9157C148.458 29.3637 149.308 29.5877 150.232 29.5877C151.189 29.5877 152.047 29.372 152.806 28.9406C153.565 28.4925 154.159 27.8536 154.588 27.0239C155.034 26.1776 155.256 25.1985 155.256 24.0867ZM82.8713 44.5974C82.8713 42.8882 83.2426 41.3615 83.9852 40.0173C84.7277 38.6566 85.7426 37.6028 87.0297 36.8561C88.3168 36.0927 89.7525 35.7111 91.3366 35.7111C93.2673 35.7111 94.9174 36.1757 96.2871 37.105C97.6732 38.0177 98.6798 39.3121 99.3068 40.9881H97.2771C96.7821 39.8099 96.023 38.8889 94.9999 38.2251C93.9933 37.5614 92.7722 37.2295 91.3366 37.2295C90.066 37.2295 88.9191 37.5282 87.896 38.1256C86.8894 38.723 86.0974 39.5859 85.5198 40.7143C84.9423 41.8261 84.6535 43.1205 84.6535 44.5974C84.6535 46.0743 84.9423 47.3687 85.5198 48.4805C86.0974 49.5923 86.8894 50.4469 87.896 51.0443C88.9191 51.6417 90.066 51.9404 91.3366 51.9404C92.7722 51.9404 93.9933 51.6168 94.9999 50.9697C96.023 50.3059 96.7821 49.3932 97.2771 48.2316H99.3068C98.6798 49.891 97.6732 51.1771 96.2871 52.0898C94.9009 53.0025 93.2508 53.4588 91.3366 53.4588C89.7525 53.4588 88.3168 53.0854 87.0297 52.3387C85.7426 51.5754 84.7277 50.5216 83.9852 49.1775C83.2426 47.8333 82.8713 46.3066 82.8713 44.5974ZM107.933 53.5086C106.662 53.5086 105.515 53.2265 104.492 52.6623C103.485 52.0815 102.685 51.2684 102.091 50.2229C101.513 49.1609 101.225 47.9246 101.225 46.514C101.225 45.1035 101.522 43.8755 102.116 42.8301C102.71 41.768 103.518 40.9549 104.542 40.3907C105.565 39.8099 106.711 39.5195 107.982 39.5195C109.253 39.5195 110.4 39.8099 111.423 40.3907C112.462 40.9549 113.271 41.768 113.848 42.8301C114.442 43.8755 114.739 45.1035 114.739 46.514C114.739 47.908 114.442 49.136 113.848 50.198C113.254 51.2601 112.437 52.0815 111.398 52.6623C110.358 53.2265 109.203 53.5086 107.933 53.5086ZM107.933 51.9902C108.824 51.9902 109.649 51.7911 110.408 51.3928C111.167 50.9779 111.777 50.364 112.239 49.5508C112.718 48.7211 112.957 47.7089 112.957 46.514C112.957 45.3193 112.726 44.3153 112.264 43.5022C111.802 42.6724 111.192 42.0584 110.433 41.6602C109.673 41.2453 108.848 41.0379 107.957 41.0379C107.066 41.0379 106.241 41.2453 105.482 41.6602C104.723 42.0584 104.112 42.6724 103.65 43.5022C103.205 44.3153 102.982 45.3193 102.982 46.514C102.982 47.7089 103.205 48.7211 103.65 49.5508C104.112 50.364 104.715 50.9779 105.457 51.3928C106.216 51.7911 107.042 51.9902 107.933 51.9902ZM118.888 34.8897V53.3095H117.155V34.8897H118.888ZM123.802 34.8897V53.3095H122.069V34.8897H123.802ZM139.21 45.8171C139.21 46.4145 139.194 46.8708 139.161 47.1861H127.948C127.998 48.215 128.245 49.0945 128.691 49.8246C129.136 50.5548 129.722 51.1107 130.448 51.4924C131.174 51.8575 131.966 52.04 132.824 52.04C133.946 52.04 134.887 51.7662 135.646 51.2186C136.422 50.671 136.933 49.9325 137.181 49.0032H139.012C138.682 50.3308 137.973 51.4177 136.884 52.264C135.811 53.0937 134.458 53.5086 132.824 53.5086C131.554 53.5086 130.415 53.2265 129.408 52.6623C128.402 52.0815 127.61 51.2684 127.032 50.2229C126.471 49.1609 126.191 47.9246 126.191 46.514C126.191 45.1035 126.471 43.8672 127.032 42.8052C127.593 41.7432 128.377 40.93 129.384 40.3658C130.39 39.8016 131.537 39.5195 132.824 39.5195C134.111 39.5195 135.234 39.8016 136.191 40.3658C137.164 40.93 137.907 41.6934 138.418 42.6558C138.946 43.6017 139.21 44.6555 139.21 45.8171ZM137.453 45.7673C137.469 44.755 137.263 43.8921 136.834 43.1786C136.422 42.465 135.852 41.9257 135.126 41.5606C134.4 41.1955 133.608 41.013 132.75 41.013C131.463 41.013 130.366 41.4279 129.458 42.2576C128.55 43.0873 128.047 44.2572 127.948 45.7673H137.453ZM140.846 46.514C140.846 45.1035 141.126 43.8755 141.687 42.8301C142.249 41.768 143.024 40.9549 144.014 40.3907C145.004 39.8099 146.135 39.5195 147.405 39.5195C149.072 39.5195 150.442 39.9344 151.514 40.7641C152.603 41.5938 153.305 42.7222 153.618 44.1493H151.762C151.531 43.1703 151.027 42.4069 150.252 41.8593C149.493 41.2951 148.544 41.013 147.405 41.013C146.498 41.013 145.681 41.2204 144.955 41.6353C144.229 42.0501 143.651 42.6724 143.222 43.5022C142.81 44.3153 142.603 45.3193 142.603 46.514C142.603 47.7089 142.81 48.7211 143.222 49.5508C143.651 50.3806 144.229 51.0028 144.955 51.4177C145.681 51.8326 146.498 52.04 147.405 52.04C148.544 52.04 149.493 51.7662 150.252 51.2186C151.027 50.6544 151.531 49.8744 151.762 48.8788H153.618C153.305 50.2727 152.603 51.3928 151.514 52.2391C150.425 53.0854 149.055 53.5086 147.405 53.5086C146.135 53.5086 145.004 53.2265 144.014 52.6623C143.024 52.0815 142.249 51.2684 141.687 50.2229C141.126 49.1609 140.846 47.9246 140.846 46.514ZM158.328 41.1872V49.6255C158.328 50.4552 158.485 51.0277 158.798 51.343C159.112 51.6583 159.664 51.816 160.456 51.816H162.041V53.3095H160.184C158.963 53.3095 158.056 53.0274 157.461 52.4632C156.867 51.8823 156.57 50.9365 156.57 49.6255V41.1872H154.689V39.7186H156.57V36.3085H158.328V39.7186H162.041V41.1872H158.328ZM165.022 37.1548C164.676 37.1548 164.379 37.0303 164.131 36.7814C163.883 36.5325 163.76 36.2255 163.76 35.8604C163.76 35.4954 163.883 35.1966 164.131 34.9643C164.379 34.7154 164.676 34.591 165.022 34.591C165.369 34.591 165.666 34.7154 165.913 34.9643C166.161 35.1966 166.284 35.4954 166.284 35.8604C166.284 36.2255 166.161 36.5325 165.913 36.7814C165.666 37.0303 165.369 37.1548 165.022 37.1548ZM165.888 39.7186V53.3095H164.156V39.7186H165.888ZM173.871 51.6168L178.426 39.7186H180.257L174.837 53.3095H172.881L167.461 39.7186H169.317L173.871 51.6168ZM194.091 45.8171C194.091 46.4145 194.074 46.8708 194.041 47.1861H182.829C182.878 48.215 183.126 49.0945 183.571 49.8246C184.017 50.5548 184.603 51.1107 185.329 51.4924C186.055 51.8575 186.847 52.04 187.705 52.04C188.827 52.04 189.768 51.7662 190.527 51.2186C191.302 50.671 191.814 49.9325 192.061 49.0032H193.893C193.563 50.3308 192.853 51.4177 191.764 52.264C190.692 53.0937 189.338 53.5086 187.705 53.5086C186.434 53.5086 185.296 53.2265 184.289 52.6623C183.282 52.0815 182.49 51.2684 181.913 50.2229C181.352 49.1609 181.071 47.9246 181.071 46.514C181.071 45.1035 181.352 43.8672 181.913 42.8052C182.474 41.7432 183.258 40.93 184.264 40.3658C185.271 39.8016 186.418 39.5195 187.705 39.5195C188.992 39.5195 190.114 39.8016 191.071 40.3658C192.045 40.93 192.787 41.6934 193.299 42.6558C193.827 43.6017 194.091 44.6555 194.091 45.8171ZM192.334 45.7673C192.35 44.755 192.144 43.8921 191.715 43.1786C191.302 42.465 190.733 41.9257 190.007 41.5606C189.281 41.1955 188.489 41.013 187.631 41.013C186.343 41.013 185.246 41.4279 184.339 42.2576C183.431 43.0873 182.928 44.2572 182.829 45.7673H192.334Z" fill="white"/>
</g>
<defs>
<linearGradient id="paint0_linear_1_9422" x1="205.782" y1="56.0104" x2="117.218" y2="56.0104" gradientUnits="userSpaceOnUse">
<stop offset="0.0528846"/>
<stop offset="0.495192" stop-color="#A600F7"/>
<stop offset="0.899038"/>
</linearGradient>
<linearGradient id="paint1_linear_1_9422" x1="6.2278" y1="17.1311" x2="15.6419" y2="62.7433" gradientUnits="userSpaceOnUse">
<stop stop-color="#A600F7"/>
<stop offset="0.4246" stop-color="#A600F7"/>
<stop offset="1" stop-color="#CFCCCE"/>
</linearGradient>
<linearGradient id="paint2_linear_1_9422" x1="8.22164" y1="14.7757" x2="19.0227" y2="67.1037" gradientUnits="userSpaceOnUse">
<stop stop-color="#A600F7"/>
<stop offset="0.4246" stop-color="#A600F7"/>
<stop offset="1" stop-color="#CFCCCE"/>
</linearGradient>
<linearGradient id="paint3_linear_1_9422" x1="2.79365" y1="12.4292" x2="13.5948" y2="64.7571" gradientUnits="userSpaceOnUse">
<stop stop-color="#A600F7"/>
<stop offset="0.4246" stop-color="#A600F7"/>
<stop offset="1" stop-color="#CFCCCE"/>
</linearGradient>
<linearGradient id="paint4_linear_1_9422" x1="19.7142" y1="9.51476" x2="30.5142" y2="61.8429" gradientUnits="userSpaceOnUse">
<stop stop-color="#A600F7"/>
<stop offset="0.4246" stop-color="#A600F7"/>
<stop offset="1" stop-color="#CFCCCE"/>
</linearGradient>
<linearGradient id="paint5_linear_1_9422" x1="24.6166" y1="8.5031" x2="35.4174" y2="60.8306" gradientUnits="userSpaceOnUse">
<stop stop-color="#A600F7"/>
<stop offset="0.4246" stop-color="#A600F7"/>
<stop offset="1" stop-color="#CFCCCE"/>
</linearGradient>
<linearGradient id="paint6_linear_1_9422" x1="14.8124" y1="10.5269" x2="25.6132" y2="62.8543" gradientUnits="userSpaceOnUse">
<stop stop-color="#A600F7"/>
<stop offset="0.4246" stop-color="#A600F7"/>
<stop offset="1" stop-color="#CFCCCE"/>
</linearGradient>
<linearGradient id="paint7_linear_1_9422" x1="36.4226" y1="6.06592" x2="47.2228" y2="58.3939" gradientUnits="userSpaceOnUse">
<stop stop-color="#A600F7"/>
<stop offset="0.4246" stop-color="#A600F7"/>
<stop offset="1" stop-color="#CFCCCE"/>
</linearGradient>
<linearGradient id="paint8_linear_1_9422" x1="41.3024" y1="5.05887" x2="52.1016" y2="57.3875" gradientUnits="userSpaceOnUse">
<stop stop-color="#A600F7"/>
<stop offset="0.4246" stop-color="#A600F7"/>
<stop offset="1" stop-color="#CFCCCE"/>
</linearGradient>
<linearGradient id="paint9_linear_1_9422" x1="31.5411" y1="7.07302" x2="42.3405" y2="59.4019" gradientUnits="userSpaceOnUse">
<stop stop-color="#A600F7"/>
<stop offset="0.4246" stop-color="#A600F7"/>
<stop offset="1" stop-color="#CFCCCE"/>
</linearGradient>
<linearGradient id="paint10_linear_1_9422" x1="48.1276" y1="3.65106" x2="58.9279" y2="55.979" gradientUnits="userSpaceOnUse">
<stop stop-color="#A600F7"/>
<stop offset="0.4246" stop-color="#A600F7"/>
<stop offset="1" stop-color="#CFCCCE"/>
</linearGradient>
<linearGradient id="paint11_linear_1_9422" x1="52.9732" y1="2.65012" x2="63.7724" y2="54.9784" gradientUnits="userSpaceOnUse">
<stop stop-color="#A600F7"/>
<stop offset="0.4246" stop-color="#A600F7"/>
<stop offset="1" stop-color="#CFCCCE"/>
</linearGradient>
<linearGradient id="paint12_linear_1_9422" x1="43.2794" y1="4.65053" x2="54.0784" y2="56.9789" gradientUnits="userSpaceOnUse">
<stop stop-color="#A600F7"/>
<stop offset="0.4246" stop-color="#A600F7"/>
<stop offset="1" stop-color="#CFCCCE"/>
</linearGradient>
<linearGradient id="paint13_linear_1_9422" x1="62.0158" y1="0.783222" x2="72.8159" y2="53.1113" gradientUnits="userSpaceOnUse">
<stop stop-color="#A600F7"/>
<stop offset="0.4246" stop-color="#A600F7"/>
<stop offset="1" stop-color="#CFCCCE"/>
</linearGradient>
<linearGradient id="paint14_linear_1_9422" x1="65.4961" y1="0.0648042" x2="76.2972" y2="52.3929" gradientUnits="userSpaceOnUse">
<stop stop-color="#A600F7"/>
<stop offset="0.4246" stop-color="#A600F7"/>
<stop offset="1" stop-color="#CFCCCE"/>
</linearGradient>
<linearGradient id="paint15_linear_1_9422" x1="58.5347" y1="1.50173" x2="69.3358" y2="53.8298" gradientUnits="userSpaceOnUse">
<stop stop-color="#A600F7"/>
<stop offset="0.4246" stop-color="#A600F7"/>
<stop offset="1" stop-color="#CFCCCE"/>
</linearGradient>
<linearGradient id="paint16_linear_1_9422" x1="41.0092" y1="37.5284" x2="41.0092" y2="55.5064" gradientUnits="userSpaceOnUse">
<stop offset="0.3184" stop-color="#121212"/>
<stop offset="1" stop-opacity="0"/>
</linearGradient>
<clipPath id="clip0_1_9422">
<rect width="204" height="67" fill="white"/>
</clipPath>
</defs>
</svg>
